<?xml version="1.0" encoding="utf-8"?>
<!-- Generator: Adobe Illustrator 15.0.2, SVG Export Plug-In . SVG Version: 6.00 Build 0)  -->
<!DOCTYPE svg PUBLIC "-//W3C//DTD SVG 1.1//EN" "http://www.w3.org/Graphics/SVG/1.1/DTD/svg11.dtd">
<svg version="1.1" id="Layer_1" xmlns="http://www.w3.org/2000/svg" xmlns:xlink="http://www.w3.org/1999/xlink" x="0px" y="0px"
	 width="35px" height="70px" viewBox="0 0 35 70" enable-background="new 0 0 35 70" xml:space="preserve">
<path fill="#FFFFFF" d="M17.5,0C7.835,0,0,7.836,0,17.5C0,27.166,7.835,35,17.5,35S35,27.166,35,17.5C35,7.836,27.165,0,17.5,0z
	 M17.142,28.018c0-1.35-3.874-2.794-9.642-2.794c-0.196,0-0.356-0.161-0.356-0.357V10.007c0-0.196,0.16-0.357,0.356-0.357
	c4.569,0,8.178,0.856,9.642,2.163V28.018z M27.856,24.866c0,0.196-0.159,0.357-0.357,0.357c-5.768,0-9.643,1.444-9.643,2.794V11.812
	c1.466-1.307,5.073-2.163,9.643-2.163c0.198,0,0.357,0.161,0.357,0.357V24.866z"/>
<path fill="#3D3738" d="M17.5,35C7.835,35,0,42.836,0,52.5C0,62.166,7.835,70,17.5,70S35,62.166,35,52.5
	C35,42.836,27.165,35,17.5,35z M17.142,63.018c0-1.35-3.874-2.794-9.642-2.794c-0.196,0-0.356-0.161-0.356-0.357V45.007
	c0-0.196,0.16-0.357,0.356-0.357c4.569,0,8.178,0.856,9.642,2.163V63.018z M27.856,59.866c0,0.196-0.159,0.357-0.357,0.357
	c-5.768,0-9.643,1.444-9.643,2.794V46.812c1.466-1.307,5.073-2.163,9.643-2.163c0.198,0,0.357,0.161,0.357,0.357V59.866z"/>
</svg>
