<?xml version="1.0" encoding="utf-8"?>
<!-- Generator: Adobe Illustrator 15.0.2, SVG Export Plug-In . SVG Version: 6.00 Build 0)  -->
<!DOCTYPE svg PUBLIC "-//W3C//DTD SVG 1.1//EN" "http://www.w3.org/Graphics/SVG/1.1/DTD/svg11.dtd">
<svg version="1.1" id="Layer_1" xmlns="http://www.w3.org/2000/svg" xmlns:xlink="http://www.w3.org/1999/xlink" x="0px" y="0px"
	 width="35px" height="70px" viewBox="0 0 35 70" enable-background="new 0 0 35 70" xml:space="preserve">
<g>
	<rect x="11.071" y="6.925" fill="#FFFFFF" width="2.143" height="2.857"/>
	<path fill="#FFFFFF" d="M17.856,17.732c0.197,0,0.357-0.159,0.357-0.357v-0.45h3.4l-1.141,2.856h-1.623
		c-0.197,0-0.357,0.16-0.357,0.357s0.16,0.357,0.357,0.357h1.338l-1.219,3.05c-0.072,0.184,0.016,0.391,0.199,0.464
		c0.043,0.018,0.088,0.026,0.131,0.026c0.143,0,0.277-0.084,0.332-0.225l1.324-3.315h0.598c0.197,0,0.355-0.16,0.355-0.357
		s-0.158-0.357-0.355-0.357h-0.311l1.23-3.08c0.045-0.111,0.031-0.236-0.035-0.334c-0.068-0.099-0.176-0.156-0.297-0.156h-4.285
		c-0.197,0-0.355,0.159-0.355,0.357v0.807C17.501,17.573,17.659,17.732,17.856,17.732z"/>
	<path fill="#FFFFFF" d="M13.214,23.353c-0.197,0-0.357,0.16-0.357,0.357c0,0.196,0.16,0.357,0.357,0.357h3.572
		c0.195,0,0.357-0.161,0.357-0.357c0-0.197-0.162-0.357-0.357-0.357h-1.43v-6.784c0-0.145-0.086-0.274-0.219-0.33
		c-0.135-0.058-0.287-0.026-0.391,0.077l-1.785,1.786c-0.141,0.139-0.141,0.364,0,0.504c0.139,0.141,0.365,0.141,0.506,0
		l1.176-1.177v5.924H13.214z"/>
	<rect x="21.786" y="6.925" fill="#FFFFFF" width="2.143" height="2.857"/>
	<path fill="#FFFFFF" d="M17.5,0C7.835,0,0,7.836,0,17.5C0,27.166,7.835,35,17.5,35S35,27.166,35,17.5C35,7.836,27.165,0,17.5,0z
		 M28.214,27.28c0,0.198-0.16,0.357-0.357,0.357H7.144c-0.197,0-0.357-0.159-0.357-0.357V13.354h21.428V27.28z M28.214,12.639H6.786
		V8.711c0-0.197,0.16-0.357,0.357-0.357h3.215V6.568c0-0.197,0.16-0.357,0.357-0.357h2.855c0.197,0,0.357,0.16,0.357,0.357v1.785
		h7.143V6.568c0-0.197,0.158-0.357,0.357-0.357h2.857c0.195,0,0.357,0.16,0.357,0.357v1.785h3.213c0.197,0,0.357,0.16,0.357,0.357
		V12.639z"/>
</g>
<g>
	<rect x="11.071" y="41.925" fill="#3D3738" width="2.143" height="2.857"/>
	<path fill="#3D3738" d="M17.856,52.732c0.197,0,0.357-0.159,0.357-0.357v-0.45h3.4l-1.141,2.856h-1.623
		c-0.197,0-0.357,0.16-0.357,0.357s0.16,0.357,0.357,0.357h1.338l-1.219,3.05c-0.072,0.184,0.016,0.391,0.199,0.464
		c0.043,0.018,0.088,0.026,0.131,0.026c0.143,0,0.277-0.084,0.332-0.225l1.324-3.315h0.598c0.197,0,0.355-0.16,0.355-0.357
		s-0.158-0.357-0.355-0.357h-0.311l1.23-3.08c0.045-0.111,0.031-0.236-0.035-0.334c-0.068-0.099-0.176-0.156-0.297-0.156h-4.285
		c-0.197,0-0.355,0.159-0.355,0.357v0.807C17.501,52.573,17.659,52.732,17.856,52.732z"/>
	<path fill="#3D3738" d="M13.214,58.353c-0.197,0-0.357,0.16-0.357,0.357c0,0.196,0.16,0.357,0.357,0.357h3.572
		c0.195,0,0.357-0.161,0.357-0.357c0-0.197-0.162-0.357-0.357-0.357h-1.43v-6.784c0-0.145-0.086-0.274-0.219-0.33
		c-0.135-0.058-0.287-0.026-0.391,0.077l-1.785,1.786c-0.141,0.139-0.141,0.364,0,0.504c0.139,0.141,0.365,0.141,0.506,0
		l1.176-1.177v5.924H13.214z"/>
	<rect x="21.786" y="41.925" fill="#3D3738" width="2.143" height="2.857"/>
	<path fill="#3D3738" d="M17.5,35C7.835,35,0,42.836,0,52.5C0,62.166,7.835,70,17.5,70S35,62.166,35,52.5
		C35,42.836,27.165,35,17.5,35z M28.214,62.28c0,0.198-0.16,0.357-0.357,0.357H7.144c-0.197,0-0.357-0.159-0.357-0.357V48.354
		h21.428V62.28z M28.214,47.639H6.786v-3.928c0-0.197,0.16-0.357,0.357-0.357h3.215v-1.785c0-0.197,0.16-0.357,0.357-0.357h2.855
		c0.197,0,0.357,0.16,0.357,0.357v1.785h7.143v-1.785c0-0.197,0.158-0.357,0.357-0.357h2.857c0.195,0,0.357,0.16,0.357,0.357v1.785
		h3.213c0.197,0,0.357,0.16,0.357,0.357V47.639z"/>
</g>
</svg>
