<?xml version="1.0" encoding="utf-8"?>
<!-- Generator: Adobe Illustrator 15.0.2, SVG Export Plug-In . SVG Version: 6.00 Build 0)  -->
<!DOCTYPE svg PUBLIC "-//W3C//DTD SVG 1.1//EN" "http://www.w3.org/Graphics/SVG/1.1/DTD/svg11.dtd">
<svg version="1.1" id="Layer_1" xmlns="http://www.w3.org/2000/svg" xmlns:xlink="http://www.w3.org/1999/xlink" x="0px" y="0px"
	 width="35px" height="70px" viewBox="0 0 35 70" enable-background="new 0 0 35 70" xml:space="preserve">
<g>
	<circle fill="#FFFFFF" cx="19.521" cy="10.56" r="0.451"/>
	<circle fill="#FFFFFF" cx="21.773" cy="10.56" r="0.451"/>
	<circle fill="#FFFFFF" cx="12.767" cy="25.419" r="0.807"/>
	<path fill="#FFFFFF" d="M17.5,0C7.835,0,0,7.836,0,17.5C0,27.166,7.835,35,17.5,35S35,27.166,35,17.5C35,7.836,27.165,0,17.5,0z
		 M7.456,11.864c0-1.201,0.943-2.143,2.144-2.143h4.999v3.214c0,0.123,0.016,0.241,0.042,0.357H7.456V11.864z M18.171,25.435
		c-0.115,1.256-1.017,2.144-2.143,2.144H9.6c-1.182,0-2.144-0.969-2.144-2.158v-1.413h10.715V25.435z M18.171,23.293H7.456v-9.286
		h0.715h6.816c0.333,0.427,0.843,0.715,1.397,0.715h1.786V23.293z M28.17,12.936c0,0.551-0.521,1.071-1.071,1.071h-4.952
		c-0.094,0-0.185,0.038-0.252,0.104l-2.296,2.26v-2.006c0-0.197-0.16-0.357-0.355-0.357h-1.786H17.1h-0.715
		c-0.55,0-1.071-0.521-1.071-1.071V7.937c0-0.55,0.521-1.072,1.071-1.072h10.714c0.55,0,1.071,0.522,1.071,1.072V12.936z"/>
	<path fill="#FFFFFF" d="M12.099,11.507h-0.713c-0.197,0-0.357,0.161-0.357,0.357c0,0.197,0.16,0.356,0.357,0.356h0.713
		c0.197,0,0.357-0.159,0.357-0.356C12.456,11.668,12.296,11.507,12.099,11.507z"/>
	<circle fill="#FFFFFF" cx="24.023" cy="10.56" r="0.451"/>
</g>
<g>
	<circle fill="#3D3738" cx="19.521" cy="45.56" r="0.451"/>
	<circle fill="#3D3738" cx="21.773" cy="45.56" r="0.451"/>
	<circle fill="#3D3738" cx="12.767" cy="60.419" r="0.807"/>
	<path fill="#3D3738" d="M17.5,35C7.835,35,0,42.836,0,52.5C0,62.166,7.835,70,17.5,70S35,62.166,35,52.5
		C35,42.836,27.165,35,17.5,35z M7.456,46.864c0-1.201,0.943-2.143,2.144-2.143h4.999v3.214c0,0.123,0.016,0.241,0.042,0.357H7.456
		V46.864z M18.171,60.435c-0.115,1.256-1.017,2.144-2.143,2.144H9.6c-1.182,0-2.144-0.969-2.144-2.158v-1.413h10.715V60.435z
		 M18.171,58.293H7.456v-9.286h0.715h6.816c0.333,0.427,0.843,0.715,1.397,0.715h1.786V58.293z M28.17,47.936
		c0,0.551-0.521,1.071-1.071,1.071h-4.952c-0.094,0-0.185,0.038-0.252,0.104l-2.296,2.26v-2.006c0-0.197-0.16-0.357-0.355-0.357
		h-1.786H17.1h-0.715c-0.55,0-1.071-0.521-1.071-1.071v-4.999c0-0.55,0.521-1.072,1.071-1.072h10.714
		c0.55,0,1.071,0.522,1.071,1.072V47.936z"/>
	<path fill="#3D3738" d="M12.099,46.507h-0.713c-0.197,0-0.357,0.161-0.357,0.357c0,0.197,0.16,0.356,0.357,0.356h0.713
		c0.197,0,0.357-0.159,0.357-0.356C12.456,46.668,12.296,46.507,12.099,46.507z"/>
	<circle fill="#3D3738" cx="24.023" cy="45.56" r="0.451"/>
</g>
</svg>
