<?xml version="1.0" encoding="utf-8"?>
<!-- Generator: Adobe Illustrator 15.0.2, SVG Export Plug-In . SVG Version: 6.00 Build 0)  -->
<!DOCTYPE svg PUBLIC "-//W3C//DTD SVG 1.1//EN" "http://www.w3.org/Graphics/SVG/1.1/DTD/svg11.dtd">
<svg version="1.1" id="Layer_1" xmlns="http://www.w3.org/2000/svg" xmlns:xlink="http://www.w3.org/1999/xlink" x="0px" y="0px"
	 width="35px" height="70px" viewBox="0 0 35 70" enable-background="new 0 0 35 70" xml:space="preserve">
<path fill="#B19F74" d="M17.5,0C7.834,0,0,7.836,0,17.5C0,27.166,7.834,35,17.5,35C27.164,35,35,27.166,35,17.5
	C35,7.836,27.164,0,17.5,0z M28.121,23.373H6.879c-0.414,0-0.75-0.336-0.75-0.75s0.336-0.75,0.75-0.75h21.242
	c0.414,0,0.75,0.336,0.75,0.75S28.535,23.373,28.121,23.373z M28.121,18.25H6.879c-0.414,0-0.75-0.336-0.75-0.75
	s0.336-0.75,0.75-0.75h21.242c0.414,0,0.75,0.336,0.75,0.75S28.535,18.25,28.121,18.25z M28.121,13.129H6.879
	c-0.414,0-0.75-0.336-0.75-0.75s0.336-0.75,0.75-0.75h21.242c0.414,0,0.75,0.336,0.75,0.75S28.535,13.129,28.121,13.129z"/>
<path fill="#3D3738" d="M17.5,35C7.834,35,0,42.836,0,52.5C0,62.166,7.834,70,17.5,70C27.164,70,35,62.166,35,52.5
	C35,42.836,27.164,35,17.5,35z M28.121,58.373H6.879c-0.414,0-0.75-0.336-0.75-0.75s0.336-0.75,0.75-0.75h21.242
	c0.414,0,0.75,0.336,0.75,0.75S28.535,58.373,28.121,58.373z M28.121,53.25H6.879c-0.414,0-0.75-0.336-0.75-0.75
	s0.336-0.75,0.75-0.75h21.242c0.414,0,0.75,0.336,0.75,0.75S28.535,53.25,28.121,53.25z M28.121,48.129H6.879
	c-0.414,0-0.75-0.336-0.75-0.75s0.336-0.75,0.75-0.75h21.242c0.414,0,0.75,0.336,0.75,0.75S28.535,48.129,28.121,48.129z"/>
</svg>
